<?xml version="1.0" encoding="utf-8"?>
<!-- Generator: Adobe Illustrator 16.0.0, SVG Export Plug-In . SVG Version: 6.00 Build 0)  -->
<!DOCTYPE svg PUBLIC "-//W3C//DTD SVG 1.1//EN" "http://www.w3.org/Graphics/SVG/1.1/DTD/svg11.dtd">
<svg version="1.1" id="Lager_1" xmlns="http://www.w3.org/2000/svg" xmlns:xlink="http://www.w3.org/1999/xlink" x="0px" y="0px"
	 width="40px" height="40px" viewBox="0 0 40 40" enable-background="new 0 0 40 40" xml:space="preserve">
<g>
	<path fill="#FFFFFF" d="M21.912,19.994l4.74,4.74c0.539,0.54,0.539,1.372,0,1.913c-0.25,0.248-0.624,0.414-0.957,0.414
		c-0.332,0-0.707-0.165-0.956-0.414L20,21.906l-4.739,4.74c-0.25,0.248-0.624,0.414-0.957,0.414c-0.333,0-0.707-0.165-0.956-0.414
		c-0.54-0.541-0.54-1.373,0-1.913l4.739-4.74l-4.739-4.737c-0.54-0.542-0.54-1.373,0-1.913s1.372-0.54,1.913,0L20,18.083
		l4.739-4.739c0.54-0.54,1.372-0.54,1.913,0c0.539,0.54,0.539,1.373,0,1.913L21.912,19.994L21.912,19.994z"/>
</g>
</svg>
