<?xml version="1.0" encoding="utf-8"?>
<!-- Generator: Adobe Illustrator 16.0.0, SVG Export Plug-In . SVG Version: 6.00 Build 0)  -->
<!DOCTYPE svg PUBLIC "-//W3C//DTD SVG 1.1//EN" "http://www.w3.org/Graphics/SVG/1.1/DTD/svg11.dtd">
<svg version="1.1" id="Lager_1" xmlns="http://www.w3.org/2000/svg" xmlns:xlink="http://www.w3.org/1999/xlink" x="0px" y="0px"
	 width="30px" height="30px" viewBox="0 0 30 30" enable-background="new 0 0 30 30" xml:space="preserve">
<g>
	<title>Layer 1</title>
	<path id="svg_1" fill="#FFFFFF" d="M24.6,16.199L24.6,16.199h-1.801c-0.662,0-1.199-0.537-1.199-1.199c0-0.662,0.537-1.2,1.199-1.2
		H24.6c0.662,0,1.199-0.538,1.199-1.2c0-0.663-0.537-1.2-1.199-1.2s-1.2-0.538-1.2-1.2S23.938,9,24.6,9
		c0.082,0,0.162,0.009,0.24,0.025c1.873,0.126,3.358,1.67,3.358,3.575C28.198,14.588,26.588,16.199,24.6,16.199z M18.6,13.8h-1.2
		h-4.199H5.401c-0.663,0-1.2,0.538-1.2,1.2c0,0.663,0.537,1.199,1.2,1.199h1.2H9h1.8h2.4H15h2.399h1.2c1.988,0,3.6,1.613,3.6,3.6
		c0,1.906-1.484,3.449-3.357,3.576c-0.078,0.016-0.158,0.024-0.242,0.024c-0.662,0-1.2-0.538-1.2-1.2c0-0.663,0.538-1.199,1.2-1.199
		s1.199-0.539,1.199-1.201S19.262,18.6,18.6,18.6h-1.2H15h-1.8h-2.4H9H6.601h-1.2c-1.988,0-3.6-1.611-3.6-3.6
		c0-1.905,1.485-3.448,3.358-3.575c0.079-0.016,0.159-0.024,0.242-0.024l0,0h7.799h4.199h1.2c0.662,0,1.199-0.538,1.199-1.2
		S19.262,9,18.6,9s-1.2-0.537-1.2-1.2c0-0.663,0.538-1.2,1.2-1.2c0.084,0,0.164,0.009,0.242,0.025
		c1.873,0.126,3.357,1.67,3.357,3.575C22.199,12.188,20.588,13.8,18.6,13.8z"/>
</g>
</svg>
